<svg xmlns="http://www.w3.org/2000/svg" width="49.261" height="48.03" viewBox="0 0 49.261 48.03">
  <path id="Icon_awesome-github" data-name="Icon awesome-github" d="M16.477,39.236c0,.2-.228.358-.516.358-.328.03-.556-.129-.556-.358,0-.2.228-.358.516-.358C16.218,38.849,16.477,39.008,16.477,39.236Zm-3.089-.447c-.07.2.129.427.427.487a.466.466,0,0,0,.616-.2c.06-.2-.129-.427-.427-.516A.51.51,0,0,0,13.388,38.789Zm4.39-.169c-.288.07-.487.258-.457.487.03.2.288.328.586.258s.487-.258.457-.457S18.066,38.591,17.778,38.621ZM24.313.563A23.815,23.815,0,0,0,0,24.8,24.9,24.9,0,0,0,16.834,48.552c1.271.228,1.718-.556,1.718-1.2,0-.616-.03-4.012-.03-6.1,0,0-6.952,1.49-8.412-2.96,0,0-1.132-2.89-2.761-3.635,0,0-2.274-1.559.159-1.529a5.243,5.243,0,0,1,3.834,2.562c2.175,3.834,5.82,2.731,7.24,2.076a5.52,5.52,0,0,1,1.589-3.347C14.619,33.8,9.018,33,9.018,23.445a7.527,7.527,0,0,1,2.344-5.85,9.384,9.384,0,0,1,.258-6.744c2.076-.646,6.853,2.682,6.853,2.682a23.463,23.463,0,0,1,12.474,0S35.724,10.2,37.8,10.852a9.379,9.379,0,0,1,.258,6.744c1.589,1.758,2.562,3.128,2.562,5.85,0,9.584-5.85,10.349-11.4,10.974a5.873,5.873,0,0,1,1.688,4.608c0,3.347-.03,7.488-.03,8.3,0,.646.457,1.43,1.718,1.2A24.67,24.67,0,0,0,49.261,24.8C49.261,11.021,38.088.563,24.313.563ZM9.654,34.817c-.129.1-.1.328.07.516.159.159.387.228.516.1.129-.1.1-.328-.07-.516C10.011,34.757,9.783,34.688,9.654,34.817Zm-1.073-.8c-.07.129.03.288.228.387a.3.3,0,0,0,.427-.07c.07-.129-.03-.288-.228-.387C8.809,33.883,8.65,33.913,8.581,34.012ZM11.8,37.548c-.159.129-.1.427.129.616.228.228.516.258.646.1.129-.129.07-.427-.129-.616C12.226,37.419,11.928,37.389,11.8,37.548Zm-1.132-1.46c-.159.1-.159.358,0,.586s.427.328.556.228a.453.453,0,0,0,0-.616C11.084,36.058,10.826,35.959,10.667,36.088Z" transform="translate(0 -0.563)"/>
</svg>
