<svg xmlns="http://www.w3.org/2000/svg" width="182.403" height="182.403" viewBox="0 0 182.403 182.403">
  <g id="Icon_feather-settings" data-name="Icon feather-settings" transform="translate(1 1)">
    <path id="Path_1" data-name="Path 1" d="M61.883,37.691A24.191,24.191,0,1,1,37.691,13.5,24.191,24.191,0,0,1,61.883,37.691Z" transform="translate(52.51 52.51)" fill="none" stroke="#ff00ec" stroke-linecap="round" stroke-linejoin="round" stroke-width="5"/>
    <path id="Path_2" data-name="Path 2" d="M149.873,114.393a13.305,13.305,0,0,0,2.661,14.676l.484.484a16.136,16.136,0,1,1-22.82,22.82l-.484-.484a13.413,13.413,0,0,0-22.74,9.515v1.371a16.128,16.128,0,1,1-32.255,0v-.726a13.305,13.305,0,0,0-8.709-12.176,13.305,13.305,0,0,0-14.676,2.661l-.484.484A16.136,16.136,0,1,1,28.03,130.2l.484-.484A13.413,13.413,0,0,0,19,106.974H17.628a16.128,16.128,0,1,1,0-32.255h.726A13.305,13.305,0,0,0,30.53,66.01a13.305,13.305,0,0,0-2.661-14.676l-.484-.484a16.136,16.136,0,1,1,22.82-22.82l.484.484a13.305,13.305,0,0,0,14.676,2.661h.645A13.305,13.305,0,0,0,74.074,19V17.628a16.128,16.128,0,1,1,32.255,0v.726a13.413,13.413,0,0,0,22.74,9.515l.484-.484a16.136,16.136,0,1,1,22.82,22.82l-.484.484a13.305,13.305,0,0,0-2.661,14.676v.645A13.305,13.305,0,0,0,161.4,74.074h1.371a16.128,16.128,0,0,1,0,32.255h-.726a13.305,13.305,0,0,0-12.176,8.064Z" fill="none" stroke="#ff00ec" stroke-linecap="round" stroke-linejoin="round" stroke-width="5"/>
  </g>
</svg>
