<svg xmlns="http://www.w3.org/2000/svg" width="50.868" height="48.03" viewBox="0 0 50.868 48.03">
  <path id="Icon_awesome-linkedin" data-name="Icon awesome-linkedin" d="M47.235,2.25H3.622A3.549,3.549,0,0,0,0,5.713v41.1A3.549,3.549,0,0,0,3.622,50.28H47.235a3.559,3.559,0,0,0,3.633-3.463V5.713A3.559,3.559,0,0,0,47.235,2.25ZM15.374,43.419H7.835V20.5h7.551V43.419ZM11.6,17.367a4.257,4.257,0,0,1-4.371-4.128A4.257,4.257,0,0,1,11.6,9.111a4.264,4.264,0,0,1,4.371,4.128A4.25,4.25,0,0,1,11.6,17.367ZM43.635,43.419H36.1V32.269c0-2.659-.057-6.079-3.917-6.079-3.929,0-4.53,2.895-4.53,5.886V43.419H20.109V20.5h7.233v3.131h.1a8.037,8.037,0,0,1,7.142-3.7c7.63,0,9.05,4.749,9.05,10.925Z" transform="translate(0 -2.25)"/>
</svg>
