<svg xmlns="http://www.w3.org/2000/svg" width="59.137" height="48.03" viewBox="0 0 59.137 48.03">
  <path id="Icon_awesome-twitter" data-name="Icon awesome-twitter" d="M53.058,15.351c.038.525.038,1.051.038,1.576,0,16.023-12.2,34.484-34.484,34.484A34.25,34.25,0,0,1,0,45.97a25.072,25.072,0,0,0,2.927.15,24.273,24.273,0,0,0,15.047-5.178A12.142,12.142,0,0,1,6.642,32.537a15.285,15.285,0,0,0,2.289.188,12.819,12.819,0,0,0,3.189-.413A12.122,12.122,0,0,1,2.4,20.416v-.15A12.206,12.206,0,0,0,7.88,21.8,12.138,12.138,0,0,1,4.127,5.595,34.451,34.451,0,0,0,29.118,18.278a13.682,13.682,0,0,1-.3-2.777A12.132,12.132,0,0,1,49.794,7.208a23.862,23.862,0,0,0,7.692-2.927,12.087,12.087,0,0,1-5.328,6.679,24.3,24.3,0,0,0,6.979-1.876,26.054,26.054,0,0,1-6.079,6.266Z" transform="translate(0 -3.381)"/>
</svg>
